<svg xmlns="http://www.w3.org/2000/svg" width="525" height="204.016" viewBox="0 0 525 204.016">
  <g id="Vector_Smart_Object2" data-name="Vector Smart Object2" transform="translate(-194.614 -202.293)" opacity="0.702">
    <g id="Group_3" data-name="Group 3">
      <g id="Group_2" data-name="Group 2">
        <path id="Path_3078" data-name="Path 3078" d="M654.691,270.593l-2.382-22.345,67.3-23.076Z" fill="#81bdd3"/>
        <path id="Path_3079" data-name="Path 3079" d="M719.615,225.171l-47.835,47.962-14.731-18.48Z" fill="#8ed0ed"/>
        <path id="Path_3080" data-name="Path 3080" d="M719.615,225.171l-67.3,23.076-14.054-17.565Z" fill="#8ed0ed"/>
        <path id="Path_3081" data-name="Path 3081" d="M657.048,254.653l-2.357,15.939,9.67-6.765Z" fill="#639baa"/>
      </g>
      <path id="Path_3082" data-name="Path 3082" d="M649.234,261.165c-13.081,8.923-29.973,16.828-46.319,14.89-16.026-1.9-27.312-13.31-44.885-9.734-15.943,3.243-29.733,16.476-33.835,32.309-2.772,10.694.111,23.284,8.883,29.967,22.354,17.027,47.381-9.314,47.381-41.775,0-41.514-53.433-77.037-129.921-83.029-93.547-7.326-217.212,61.464-255,202.269" fill="none" stroke="#8ed0ed" stroke-miterlimit="10" stroke-width="1.907" stroke-dasharray="2.835 5.669"/>
    </g>
  </g>
</svg>
